# File created by Blade
# Date/Time:  Tue Jan 27 18:12:42 2015
# Frame Rate: 120.000 fps
#------------------------------------------------------
:FULLY-SPECIFIED
:DEGREES
3812
root -1.585319 31.859060 -7.054160 6.248095 -17.182192 0.828232
Spine -2.799788 -23.802098 -3.706202
Head 15.772216 30.370625 13.537970
LeftShoulder -17.185559 18.598443 3.093398
LeftArm 27.045735 37.489083 -68.029892
LeftForeArm -0.497573 -0.000000 17.815721
LeftHand -11.734931 -0.000000 -2.792846
LeftHandThumb1 -26.253704 0.000000 33.147579
RightShoulder -18.631085 -13.081125 -23.427024
RightArm 17.304775 -35.209136 35.621316
RightForeArm 24.606328 0.000000 95.934548
RightHand -19.217159 -0.000000 9.473419
RightHandThumb1 -24.326973 -0.000000 -32.862282
LeftUpLeg -0.031150 13.686505 -0.730947
LeftLeg 0.738268 -0.000000 -0.000000
LeftFoot -24.088325 24.552254 -28.288792
LeftToeBase 8.888545 -0.000000 -0.000000
RightUpLeg -4.270202 8.572290 -3.201884
RightLeg -2.977360 -0.000000 0.000000
RightFoot -9.875089 -2.695000 8.322915
RightToeBase 4.606290 -0.000000 -0.000000
3813
root -1.586018 31.859173 -7.061904 6.303750 -16.946523 0.848851
Spine -2.775300 -23.740015 -3.727753
Head 15.311483 30.081890 13.265135
LeftShoulder -17.177725 18.606788 3.128760
LeftArm 27.131020 37.408437 -68.013112
LeftForeArm -0.413520 -0.000000 17.923340
LeftHand -11.757091 -0.000000 -2.773029
LeftHandThumb1 -26.253704 0.000000 33.147579
RightShoulder -18.551053 -13.145289 -23.315551
RightArm 17.856542 -36.495414 35.307964
RightForeArm 24.452772 -0.000000 95.302984
RightHand -19.162739 -0.000000 9.935866
RightHandThumb1 -24.326973 -0.000000 -32.862282
LeftUpLeg -0.134620 13.571485 -0.744414
LeftLeg 0.733926 -0.000000 -0.000000
LeftFoot -24.016134 24.476675 -28.242714
LeftToeBase 8.869221 -0.000000 -0.000000
RightUpLeg -4.227516 8.755844 -3.247335
RightLeg -3.159993 -0.000000 0.000000
RightFoot -9.852403 -3.057433 8.452184
RightToeBase 4.650960 -0.000000 -0.000000
3814
root -1.584941 31.860182 -7.067412 6.360074 -16.714648 0.873419
Spine -2.753686 -23.661072 -3.739101
Head 14.830801 29.802909 12.966069
LeftShoulder -17.147727 18.582357 3.170495
LeftArm 27.217553 37.404785 -67.977329
LeftForeArm -0.505963 0.000000 17.971918
LeftHand -11.631959 0.000000 -2.675795
LeftHandThumb1 -26.253704 0.000000 33.147579
RightShoulder -18.504730 -13.159253 -23.206134
RightArm 18.253838 -37.646065 35.118935
RightForeArm 24.433200 0.000000 94.680976
RightHand -19.050997 -0.000000 10.532635
RightHandThumb1 -24.326973 -0.000000 -32.862282
LeftUpLeg -0.230182 13.480733 -0.765303
LeftLeg 0.718709 -0.000000 -0.000000
LeftFoot -23.888051 24.410030 -28.129751
LeftToeBase 8.839005 -0.000000 -0.000000
RightUpLeg -4.247320 8.692162 -3.269141
RightLeg -3.197045 -0.000000 0.000000
RightFoot -9.867045 -3.213732 8.481833
RightToeBase 4.622588 -0.000000 -0.000000
3815
root -1.585203 31.861486 -7.069916 6.401809 -16.456026 0.886943
Spine -2.724852 -23.599226 -3.738225
Head 14.394503 29.532074 12.696780
LeftShoulder -17.090073 18.581187 3.220559
LeftArm 27.303068 37.404620 -67.937088
LeftForeArm -0.563623 -0.000000 18.025953
LeftHand -11.533707 0.000000 -2.673624
LeftHandThumb1 -26.253704 0.000000 33.147579
RightShoulder -18.461323 -13.366104 -23.046061
RightArm 18.602480 -38.422562 35.026259
RightForeArm 24.493719 0.000000 94.096884
RightHand -18.974015 -0.000000 11.176806
RightHandThumb1 -24.326973 -0.000000 -32.862282
LeftUpLeg -0.299538 13.371817 -0.766744
LeftLeg 0.694619 -0.000000 -0.000000
LeftFoot -23.788207 24.315399 -28.058695
LeftToeBase 8.804340 -0.000000 -0.000000
RightUpLeg -4.243994 8.565516 -3.265755
RightLeg -3.221019 -0.000000 0.000000
RightFoot -9.894795 -3.339325 8.481395
RightToeBase 4.627345 -0.000000 -0.000000
3816
root -1.584447 31.862174 -7.074742 6.466600 -16.182683 0.913448
Spine -2.720388 -23.580115 -3.728665
Head 13.970843 29.298260 12.440195
LeftShoulder -17.059138 18.549256 3.258755
LeftArm 27.334427 37.404007 -67.926328
LeftForeArm -0.557396 -0.000000 18.126705
LeftHand -11.629532 0.000000 -2.614231
LeftHandThumb1 -26.253704 0.000000 33.147579
RightShoulder -18.476354 -13.488235 -22.896597
RightArm 18.883585 -39.150919 34.983915
RightForeArm 24.346822 -0.000000 93.616333
RightHand -18.934284 -0.000000 11.715674
RightHandThumb1 -24.326973 -0.000000 -32.862282
LeftUpLeg -0.401960 13.222944 -0.784159
LeftLeg 0.673138 -0.000000 -0.000000
LeftFoot -23.687798 24.233427 -27.994583
LeftToeBase 8.805838 -0.000000 -0.000000
RightUpLeg -4.270481 8.453360 -3.283683
RightLeg -3.243533 -0.000000 0.000000
RightFoot -9.932724 -3.466945 8.542965
RightToeBase 4.668371 -0.000000 -0.000000
3817
root -1.583655 31.863129 -7.079720 6.531796 -15.890058 0.947751
Spine -2.718915 -23.539195 -3.725783
Head 13.552466 29.045297 12.197268
LeftShoulder -16.980957 18.515571 3.323388
LeftArm 27.335077 37.363734 -67.959606
LeftForeArm -0.518521 0.000000 18.232641
LeftHand -11.605091 -0.000000 -2.603963
LeftHandThumb1 -26.253704 0.000000 33.147579
RightShoulder -18.530214 -13.625890 -22.740840
RightArm 19.045370 -39.767728 35.019665
RightForeArm 23.947003 -0.000000 93.243146
RightHand -18.917658 0.000000 12.016956
RightHandThumb1 -24.326973 -0.000000 -32.862282
LeftUpLeg -0.510378 13.100171 -0.806799
LeftLeg 0.654422 -0.000000 -0.000000
LeftFoot -23.551796 24.118749 -27.890728
LeftToeBase 8.807119 -0.000000 -0.000000
RightUpLeg -4.296532 8.321099 -3.305647
RightLeg -3.263720 -0.000000 0.000000
RightFoot -9.979869 -3.630137 8.527507
RightToeBase 4.712820 -0.000000 -0.000000
3818
root -1.581337 31.863988 -7.084248 6.604970 -15.619942 0.993844
Spine -2.724366 -23.541598 -3.717165
Head 13.103694 28.895419 11.919294
LeftShoulder -16.971627 18.465719 3.366338
LeftArm 27.321840 37.377226 -67.981046
LeftForeArm -0.408359 -0.000000 18.296149
LeftHand -11.321596 -0.000000 -2.565573
LeftHandThumb1 -26.253704 0.000000 33.147579
RightShoulder -18.617437 -13.806173 -22.540037
RightArm 19.244323 -40.223949 34.978291
RightForeArm 23.473117 -0.000000 93.004530
RightHand -18.956053 -0.000000 12.047040
RightHandThumb1 -24.326973 -0.000000 -32.862282
LeftUpLeg -0.627381 12.990339 -0.851690
LeftLeg 0.633699 -0.000000 -0.000000
LeftFoot -23.437205 24.006581 -27.831711
LeftToeBase 8.765070 -0.000000 -0.000000
RightUpLeg -4.366645 8.132636 -3.331869
RightLeg -3.217365 -0.000000 0.000000
RightFoot -10.051455 -3.722983 8.514825
RightToeBase 4.667983 -0.000000 -0.000000
3819
root -1.579247 31.865123 -7.087925 6.667833 -15.339290 1.033653
Spine -2.726437 -23.533072 -3.702340
Head 12.713743 28.731783 11.699381
LeftShoulder -16.906989 18.454269 3.413924
LeftArm 27.299255 37.305466 -68.038036
LeftForeArm -0.377150 -0.000000 18.399546
LeftHand -11.286948 -0.000000 -2.552535
LeftHandThumb1 -26.253704 0.000000 33.147579
RightShoulder -18.720656 -14.002079 -22.342550
RightArm 19.322470 -40.527695 35.048352
RightForeArm 22.937504 -0.000000 92.854264
RightHand -18.981339 -0.000000 12.019840
RightHandThumb1 -24.326973 -0.000000 -32.862282
LeftUpLeg -0.727291 12.864973 -0.884363
LeftLeg 0.604210 -0.000000 -0.000000
LeftFoot -23.325125 23.896591 -27.778951
LeftToeBase 8.778757 -0.000000 -0.000000
RightUpLeg -4.398641 8.017321 -3.364615
RightLeg -3.224050 -0.000000 0.000000
RightFoot -10.098824 -3.864013 8.548479
RightToeBase 4.639825 -0.000000 -0.000000
3820
root -1.579195 31.866214 -7.090969 6.738327 -15.035596 1.065523
Spine -2.740222 -23.568308 -3.672651
Head 12.349950 28.624008 11.481933
LeftShoulder -16.859905 18.436234 3.458884
LeftArm 27.271138 37.288407 -68.078693
LeftForeArm -0.376511 -0.000000 18.507524
LeftHand -11.430245 -0.000000 -2.450441
LeftHandThumb1 -26.253704 0.000000 33.147579
RightShoulder -18.838843 -14.080392 -22.184218
RightArm 19.268029 -40.802035 35.201187
RightForeArm 22.461503 0.000000 92.769689
RightHand -19.052910 -0.000000 11.841460
RightHandThumb1 -24.326973 -0.000000 -32.862282
LeftUpLeg -0.831052 12.705284 -0.908402
LeftLeg 0.572605 -0.000000 -0.000000
LeftFoot -23.235076 23.801972 -27.766030
LeftToeBase 8.793443 -0.000000 -0.000000
RightUpLeg -4.422566 7.909184 -3.382937
RightLeg -3.244691 -0.000000 0.000000
RightFoot -10.150344 -4.065542 8.519888
RightToeBase 4.651637 -0.000000 -0.000000
3821
root -1.578576 31.866954 -7.091918 6.797283 -14.723578 1.100294
Spine -2.742327 -23.632561 -3.640309
Head 12.005615 28.559030 11.276780
LeftShoulder -16.842677 18.404322 3.501106
LeftArm 27.282830 37.359567 -68.078502
LeftForeArm -0.424055 -0.000000 18.562188
LeftHand -11.461638 -0.000000 -2.340327
LeftHandThumb1 -26.253704 0.000000 33.147579
RightShoulder -18.972331 -14.193749 -21.999153
RightArm 19.148561 -40.870781 35.379117
RightForeArm 22.278844 -0.000000 92.722862
RightHand -19.046506 -0.000000 11.770184
RightHandThumb1 -24.326973 -0.000000 -32.862282
LeftUpLeg -0.920228 12.540391 -0.927418
LeftLeg 0.540777 -0.000000 -0.000000
LeftFoot -23.088434 23.732240 -27.625388
LeftToeBase 8.744742 -0.000000 -0.000000
RightUpLeg -4.432728 7.772479 -3.400347
RightLeg -3.261233 -0.000000 0.000000
RightFoot -10.210823 -4.231139 8.557385
RightToeBase 4.725012 -0.000000 -0.000000
3822
root -1.577534 31.868021 -7.092891 6.852442 -14.440525 1.127945
Spine -2.743170 -23.684915 -3.602163
Head 11.674784 28.498595 11.084244
LeftShoulder -16.798967 18.371147 3.535718
LeftArm 27.171781 37.327488 -68.149696
LeftForeArm -0.328502 0.000000 18.710481
LeftHand -11.369693 -0.000000 -2.350813
LeftHandThumb1 -26.253704 0.000000 33.147579
RightShoulder -19.099057 -14.365999 -21.817070
RightArm 18.952080 -40.712420 35.684002
RightForeArm 22.270856 -0.000000 92.680679
RightHand -19.043951 -0.000000 11.783728
RightHandThumb1 -24.326973 -0.000000 -32.862282
LeftUpLeg -0.995222 12.411527 -0.943651
LeftLeg 0.489686 -0.000000 -0.000000
LeftFoot -22.947834 23.649301 -27.510132
LeftToeBase 8.742358 -0.000000 -0.000000
RightUpLeg -4.450808 7.655228 -3.417385
RightLeg -3.252360 -0.000000 0.000000
RightFoot -10.270779 -4.368429 8.590138
RightToeBase 4.729921 -0.000000 -0.000000
3823
root -1.576795 31.869032 -7.093005 6.898549 -14.166348 1.160106
Spine -2.742361 -23.769771 -3.564605
Head 11.359425 28.484637 10.891871
LeftShoulder -16.785009 18.353251 3.563396
LeftArm 27.100306 37.300711 -68.226176
LeftForeArm -0.226105 0.000000 18.782558
LeftHand -11.498381 -0.000000 -2.347388
LeftHandThumb1 -26.253704 0.000000 33.147579
RightShoulder -19.209043 -14.441106 -21.684340
RightArm 18.635788 -40.496514 36.083169
RightForeArm 22.411762 0.000000 92.660947
RightHand -19.000294 -0.000000 11.774279
RightHandThumb1 -24.326973 -0.000000 -32.862282
LeftUpLeg -1.064380 12.306943 -0.968147
LeftLeg 0.454273 -0.000000 -0.000000
LeftFoot -22.848206 23.530859 -27.498999
LeftToeBase 8.735389 -0.000000 -0.000000
RightUpLeg -4.461830 7.530421 -3.432760
RightLeg -3.244282 -0.000000 0.000000
RightFoot -10.337953 -4.498366 8.629279
RightToeBase 4.732260 -0.000000 -0.000000
3824
root -1.576217 31.869606 -7.090614 6.942517 -13.920558 1.189305
Spine -2.755382 -23.854202 -3.519474
Head 11.094749 28.544876 10.732585
LeftShoulder -16.783640 18.356848 3.584322
LeftArm 27.040681 37.291761 -68.302145
LeftForeArm -0.217183 0.000000 18.833392
LeftHand -11.456323 -0.000000 -2.300319
LeftHandThumb1 -26.253704 0.000000 33.147579
RightShoulder -19.311331 -14.512549 -21.569884
RightArm 18.239747 -40.118561 36.562258
RightForeArm 22.644917 0.000000 92.656072
RightHand -18.871928 -0.000000 11.900391
RightHandThumb1 -24.326973 -0.000000 -32.862282
LeftUpLeg -1.118124 12.250224 -0.987900
LeftLeg 0.408110 -0.000000 -0.000000
LeftFoot -22.714908 23.420968 -27.394142
LeftToeBase 8.717883 -0.000000 -0.000000
RightUpLeg -4.473201 7.439005 -3.448841
RightLeg -3.231520 -0.000000 0.000000
RightFoot -10.401622 -4.669410 8.612493
RightToeBase 4.721504 -0.000000 -0.000000
